<svg version="1.1" id="womanGroup_00000045603898336384956500000014772596737430801060_"
	 xmlns="http://www.w3.org/2000/svg" xmlns:xlink="http://www.w3.org/1999/xlink" x="0px" y="0px" viewBox="0 0 84 84"
	 style="enable-background:new 0 0 84 84;" xml:space="preserve">
<style type="text/css">
	.st0{fill:#C0C0F2;}
	.st1{fill:#352F8B;}
	.st2{fill:#FFFFFF;}
	.st3{fill:#dd680b;}
</style>
<g id="womanGroup">
	<path id="background" class="st0" d="M81.9,41.6c0-22.1-17.9-40-40-40s-40,17.9-40,40c0,13.5,6.7,25.4,16.9,32.6
		c-0.2-4.7-0.3-19.4,4.9-20.2c6.1-1,7.9-1.2,7.9-1.2L41.9,61L52,52.7c0,0,1.8,0.2,7.9,1.2c5.2,0.9,5,15.8,4.9,20.4
		C75.2,67.1,81.9,55.1,81.9,41.6z"/>
	<path id="hair2" class="st1" d="M57.5,54.4c-1.7-24.9-4.2-29-4.2-29L41.9,23v-0.1l-0.3,0.1l-0.1,0v0l-11.3,2.4c0,0-2.9,5.3-4.2,29
		h15.5v0H57.5z"/>
	<path id="face" class="st2" d="M46.2,46.1c4.2-2,7.1-6.8,7.1-12.4c0-7.4-5.1-13.5-11.5-13.5c-6.3,0-11.5,6-11.5,13.5
		c0,5.7,3,10.6,7.3,12.5V52l-6.1,0.8l1.3,8.3h8.3h1.5H51l1.3-8.3L46.2,52V46.1z"/>
	<path id="hair1" class="st1" d="M45.1,24.9c0,0-1.7,3.9-10,6.1c-0.5,0.1-1,0.3-1.4,0.5c-1.2,0.6-2.5,1.3-3.1,2.5
		c0,0.1-0.1,0.4-0.2,0.3c-0.1,0-0.2-0.2-0.2-0.3c-0.1-0.2-0.1-0.5-0.2-0.7c-0.1-0.4-0.2-0.7-0.2-1.1c-0.1-0.7-0.2-1.5-0.2-2.3
		C29.1,20.7,40,14.9,48.1,19.3c2.3,1.2,4.4,3.6,5.1,6.1c0.5,1.8,0.6,3.8,0.5,5.7c0,0.2-0.2,2.5-0.4,2.6
		C53.4,33.8,48.9,30.9,45.1,24.9z"/>
	<path id="body" class="st3" d="M60,53.9c-6.1-1-7.9-1.2-7.9-1.2L41.9,61l-10.2-8.2c0,0-1.8,0.2-7.9,1.2c-5.1,0.9-5,15.5-4.9,20.2
		c6.5,4.6,14.4,7.4,23,7.4c0,0,0.1,0,0.1,0c8.5,0,16.4-2.7,22.9-7.2C65,69.7,65.2,54.8,60,53.9z"/>
</g>
</svg>
